{
  "accessors": [
    {
      "bufferView": 2,
      "componentType": 5126,
      "count": 1786,
      "max": [
        3.2206099033355713,
        3.380389928817749,
        5.501530170440674
      ],
      "min": [
        -3.2206099033355713,
        -0.6319500207901001,
        0.10213000327348709
      ],
      "type": "VEC3"
    },
    {
      "bufferView": 2,
      "byteOffset": 21432,
      "componentType": 5126,
      "count": 1786,
      "max": [
        0.9999109506607056,
        0.9997363090515137,
        1.0
      ],
      "min": [
        -0.9999080300331116,
        -0.9999882578849792,
        -1.0
      ],
      "type": "VEC3"
    },
    {
      "bufferView": 1,
      "componentType": 5126,
      "count": 1786,
      "max": [
        0.0,
        0.0
      ],
      "min": [
        0.0,
        0.0
      ],
      "type": "VEC2"
    },
    {
      "bufferView": 0,
      "componentType": 5125,
      "count": 9972,
      "type": "SCALAR"
    },
    {
      "bufferView": 2,
      "byteOffset": 42864,
      "componentType": 5126,
      "count": 740,
      "max": [
        3.213710069656372,
        1.7060600519180298,
        4.191539764404297
      ],
      "min": [
        -3.2084100246429443,
        1.017009973526001,
        3.227839946746826
      ],
      "type": "VEC3"
    },
    {
      "bufferView": 2,
      "byteOffset": 51744,
      "componentType": 5126,
      "count": 740,
      "max": [
        0.9999986290931702,
        0.9998965859413147,
        1.0
      ],
      "min": [
        -0.9999986290931702,
        -0.9999991059303284,
        -1.0
      ],
      "type": "VEC3"
    },
    {
      "bufferView": 1,
      "byteOffset": 14288,
      "componentType": 5126,
      "count": 740,
      "max": [
        0.0,
        0.0
      ],
      "min": [
        0.0,
        0.0
      ],
      "type": "VEC2"
    },
    {
      "bufferView": 0,
      "byteOffset": 39888,
      "componentType": 5125,
      "count": 1968,
      "type": "SCALAR"
    },
    {
      "bufferView": 2,
      "byteOffset": 60624,
      "componentType": 5126,
      "count": 1333,
      "max": [
        3.4006199836730957,
        5.789130210876465,
        5.5004401206970215
      ],
      "min": [
        -3.4006199836730957,
        -0.6319500207901001,
        -6.4308600425720215
      ],
      "type": "VEC3"
    },
    {
      "bufferView": 2,
      "byteOffset": 76620,
      "componentType": 5126,
      "count": 1333,
      "max": [
        0.999992311000824,
        0.9967092275619507,
        0.9926182627677917
      ],
      "min": [
        -0.999992311000824,
        -0.9998307228088379,
        -0.998541533946991
      ],
      "type": "VEC3"
    },
    {
      "bufferView": 1,
      "byteOffset": 20208,
      "componentType": 5126,
      "count": 1333,
      "max": [
        0.0,
        0.0
      ],
      "min": [
        0.0,
        0.0
      ],
      "type": "VEC2"
    },
    {
      "bufferView": 0,
      "byteOffset": 47760,
      "componentType": 5125,
      "count": 6156,
      "type": "SCALAR"
    },
    {
      "bufferView": 2,
      "byteOffset": 92616,
      "componentType": 5126,
      "count": 6,
      "max": [
        2.414829969406128,
        2.6745800971984863,
        3.831510066986084
      ],
      "min": [
        -2.414829969406128,
        0.23101000487804413,
        3.831510066986084
      ],
      "type": "VEC3"
    },
    {
      "bufferView": 2,
      "byteOffset": 92688,
      "componentType": 5126,
      "count": 6,
      "max": [
        -0.0,
        -0.0,
        -1.0
      ],
      "min": [
        -0.0,
        -0.0,
        -1.0
      ],
      "type": "VEC3"
    },
    {
      "bufferView": 1,
      "byteOffset": 30872,
      "componentType": 5126,
      "count": 6,
      "max": [
        1.1050200462341309,
        1.0400899648666382
      ],
      "min": [
        -0.10458999872207642,
        -0.08253999799489975
      ],
      "type": "VEC2"
    },
    {
      "bufferView": 0,
      "byteOffset": 72384,
      "componentType": 5125,
      "count": 12,
      "type": "SCALAR"
    },
    {
      "bufferView": 2,
      "byteOffset": 92760,
      "componentType": 5126,
      "count": 463,
      "max": [
        3.0637900829315186,
        6.138299942016602,
        3.1146700382232666
      ],
      "min": [
        -3.0637900829315186,
        0.730430006980896,
        -5.943439960479736
      ],
      "type": "VEC3"
    },
    {
      "bufferView": 2,
      "byteOffset": 98316,
      "componentType": 5126,
      "count": 463,
      "max": [
        0.9984204769134521,
        0.9977789521217346,
        0.9999991059303284
      ],
      "min": [
        -0.9984204769134521,
        -0.991324782371521,
        -0.9857867956161499
      ],
      "type": "VEC3"
    },
    {
      "bufferView": 3,
      "componentType": 5126,
      "count": 463,
      "max": [
        0.9986985325813293,
        0.9804261922836304,
        0.9770750999450684,
        1.0
      ],
      "min": [
        -0.985830545425415,
        -0.9902914762496948,
        -0.9959712624549866,
        -1.0
      ],
      "type": "VEC4"
    },
    {
      "bufferView": 1,
      "byteOffset": 30920,
      "componentType": 5126,
      "count": 463,
      "max": [
        65.77503204345703,
        68.15763854980469
      ],
      "min": [
        -70.87554168701172,
        -75.78170776367188
      ],
      "type": "VEC2"
    },
    {
      "bufferView": 0,
      "byteOffset": 72432,
      "componentType": 5125,
      "count": 1800,
      "type": "SCALAR"
    },
    {
      "bufferView": 2,
      "byteOffset": 103872,
      "componentType": 5126,
      "count": 489,
      "max": [
        3.1779799461364746,
        3.373650074005127,
        5.48006010055542
      ],
      "min": [
        -3.1779799461364746,
        -0.6365500092506409,
        -6.1183600425720215
      ],
      "type": "VEC3"
    },
    {
      "bufferView": 2,
      "byteOffset": 109740,
      "componentType": 5126,
      "count": 489,
      "max": [
        0.994028627872467,
        0.8589221835136414,
        1.0
      ],
      "min": [
        -0.994028627872467,
        -0.9491946697235107,
        -0.556670606136322
      ],
      "type": "VEC3"
    },
    {
      "bufferView": 1,
      "byteOffset": 34624,
      "componentType": 5126,
      "count": 489,
      "max": [
        0.8640499711036682,
        0.7450000047683716
      ],
      "min": [
        0.16997000575065613,
        0.2549999952316284
      ],
      "type": "VEC2"
    },
    {
      "bufferView": 0,
      "byteOffset": 79632,
      "componentType": 5125,
      "count": 2304,
      "type": "SCALAR"
    },
    {
      "bufferView": 2,
      "byteOffset": 115608,
      "componentType": 5126,
      "count": 261,
      "max": [
        1.5815900564193726,
        8.027839660644531,
        1.5138599872589111
      ],
      "min": [
        -1.5815900564193726,
        4.936590194702148,
        -1.6493200063705444
      ],
      "type": "VEC3"
    },
    {
      "bufferView": 2,
      "byteOffset": 118740,
      "componentType": 5126,
      "count": 261,
      "max": [
        1.0,
        1.0,
        1.0
      ],
      "min": [
        -1.0,
        -0.841282308101654,
        -1.0
      ],
      "type": "VEC3"
    },
    {
      "bufferView": 1,
      "byteOffset": 38536,
      "componentType": 5126,
      "count": 261,
      "max": [
        0.0,
        0.0
      ],
      "min": [
        0.0,
        0.0
      ],
      "type": "VEC2"
    },
    {
      "bufferView": 0,
      "byteOffset": 88848,
      "componentType": 5125,
      "count": 1500,
      "type": "SCALAR"
    },
    {
      "bufferView": 2,
      "byteOffset": 121872,
      "componentType": 5126,
      "count": 3690,
      "max": [
        6.343589782714844,
        4.936590194702148,
        1.476430058479309
      ],
      "min": [
        -1.5441499948501587,
        -5.856959819793701,
        -1.796839952468872
      ],
      "type": "VEC3"
    },
    {
      "bufferView": 2,
      "byteOffset": 166152,
      "componentType": 5126,
      "count": 3690,
      "max": [
        1.0,
        0.9867989420890808,
        1.0
      ],
      "min": [
        -1.0,
        -1.0,
        -1.0
      ],
      "type": "VEC3"
    },
    {
      "bufferView": 1,
      "byteOffset": 40624,
      "componentType": 5126,
      "count": 3690,
      "max": [
        0.973330020904541,
        0.965690016746521
      ],
      "min": [
        0.0,
        -0.04318999871611595
      ],
      "type": "VEC2"
    },
    {
      "bufferView": 0,
      "byteOffset": 94848,
      "componentType": 5125,
      "count": 21096,
      "type": "SCALAR"
    },
    {
      "bufferView": 2,
      "byteOffset": 210432,
      "componentType": 5126,
      "count": 261,
      "max": [
        6.3810200691223145,
        8.027839660644531,
        1.5138599872589111
      ],
      "min": [
        3.2178499698638916,
        4.936590194702148,
        -1.6493200063705444
      ],
      "type": "VEC3"
    },
    {
      "bufferView": 2,
      "byteOffset": 213564,
      "componentType": 5126,
      "count": 261,
      "max": [
        1.0,
        1.0,
        1.0
      ],
      "min": [
        -1.0,
        -0.841282308101654,
        -1.0
      ],
      "type": "VEC3"
    },
    {
      "bufferView": 1,
      "byteOffset": 70144,
      "componentType": 5126,
      "count": 261,
      "max": [
        0.0,
        0.0
      ],
      "min": [
        0.0,
        0.0
      ],
      "type": "VEC2"
    },
    {
      "bufferView": 0,
      "byteOffset": 179232,
      "componentType": 5125,
      "count": 1500,
      "type": "SCALAR"
    }
  ],
  "asset": {
    "extras": {
      "author": "Eternal Realm (https://sketchfab.com/EternalRealm)",
      "license": "CC-BY-4.0 (http://creativecommons.org/licenses/by/4.0/)",
      "source": "https://sketchfab.com/3d-models/playstation-vr-645bb34486a54e618247c51c98f56205",
      "title": "Playstation VR"
    },
    "generator": "Sketchfab-12.66.0",
    "version": "2.0"
  },
  "bufferViews": [
    {
      "buffer": 0,
      "byteLength": 185232,
      "name": "floatBufferViews",
      "target": 34963
    },
    {
      "buffer": 0,
      "byteLength": 72232,
      "byteOffset": 185232,
      "byteStride": 8,
      "name": "floatBufferViews",
      "target": 34962
    },
    {
      "buffer": 0,
      "byteLength": 216696,
      "byteOffset": 257464,
      "byteStride": 12,
      "name": "floatBufferViews",
      "target": 34962
    },
    {
      "buffer": 0,
      "byteLength": 7408,
      "byteOffset": 474160,
      "byteStride": 16,
      "name": "floatBufferViews",
      "target": 34962
    }
  ],
  "buffers": [
    {
      "byteLength": 481568,
      "uri": "scene.bin"
    }
  ],
  "extensionsRequired": [
    "KHR_materials_pbrSpecularGlossiness"
  ],
  "extensionsUsed": [
    "KHR_materials_pbrSpecularGlossiness"
  ],
  "images": [
    {
      "uri": "textures/base_diffuse.png"
    },
    {
      "uri": "textures/screen_diffuse.jpeg"
    },
    {
      "uri": "textures/BakedCycles_normal.png"
    },
    {
      "uri": "textures/blue_diffuse.png"
    }
  ],
  "materials": [
    {
      "doubleSided": true,
      "emissiveFactor": [
        0.0,
        0.26645111550766715,
        1.0
      ],
      "extensions": {
        "KHR_materials_pbrSpecularGlossiness": {
          "diffuseFactor": [
            0.0,
            0.3526061269371026,
            1.0,
            1.0
          ],
          "glossinessFactor": 0.4,
          "specularFactor": [
            0.08708079268292684,
            0.08708079268292684,
            0.08708079268292684
          ]
        }
      },
      "name": "ball"
    },
    {
      "doubleSided": true,
      "extensions": {
        "KHR_materials_pbrSpecularGlossiness": {
          "diffuseFactor": [
            1.0,
            1.0,
            1.0,
            1.0
          ],
          "diffuseTexture": {
            "index": 0
          },
          "glossinessFactor": 0.6358612804878049,
          "specularFactor": [
            0.020007621951219516,
            0.020007621951219516,
            0.020007621951219516
          ]
        }
      },
      "name": "base"
    },
    {
      "doubleSided": true,
      "emissiveFactor": [
        1.0,
        0.03629724865654348,
        0.10243200741015444
      ],
      "extensions": {
        "KHR_materials_pbrSpecularGlossiness": {
          "diffuseFactor": [
            0.9213560469775339,
            0.007899513614467767,
            0.007899513614467767,
            1.0
          ],
          "glossinessFactor": 0.43730945121951215,
          "specularFactor": [
            0.020007621951219516,
            0.020007621951219516,
            0.020007621951219516
          ]
        }
      },
      "name": "ball2"
    },
    {
      "doubleSided": true,
      "extensions": {
        "KHR_materials_pbrSpecularGlossiness": {
          "diffuseFactor": [
            0.003817572869280599,
            0.003817572869280599,
            0.003817572869280599,
            1.0
          ],
          "glossinessFactor": 0.6968368902439024,
          "specularFactor": [
            0.0017149390243902441,
            0.0017149390243902441,
            0.0017149390243902441
          ]
        }
      },
      "name": "black"
    },
    {
      "doubleSided": true,
      "extensions": {
        "KHR_materials_pbrSpecularGlossiness": {
          "diffuseFactor": [
            0.001712375681525524,
            0.001712375681525524,
            0.001712375681525524,
            1.0
          ],
          "glossinessFactor": 0.09317835365853659,
          "specularFactor": [
            0.0078125,
            0.0078125,
            0.0078125
          ]
        }
      },
      "name": "logo"
    },
    {
      "doubleSided": true,
      "extensions": {
        "KHR_materials_pbrSpecularGlossiness": {
          "diffuseFactor": [
            1.0,
            1.0,
            1.0,
            1.0
          ],
          "glossinessFactor": 0.684641768292683,
          "specularFactor": [
            0.12366615853658537,
            0.12366615853658537,
            0.12366615853658537
          ]
        }
      },
      "name": "white"
    },
    {
      "doubleSided": true,
      "emissiveFactor": [
        0.504954268292683,
        0.504954268292683,
        0.504954268292683
      ],
      "emissiveTexture": {
        "index": 1
      },
      "extensions": {
        "KHR_materials_pbrSpecularGlossiness": {
          "diffuseFactor": [
            1.0,
            1.0,
            1.0,
            1.0
          ],
          "diffuseTexture": {
            "index": 1
          },
          "glossinessFactor": 0.6690167682926829,
          "specularFactor": [
            0.013910060975609758,
            0.013910060975609758,
            0.013910060975609758
          ]
        }
      },
      "name": "screen"
    },
    {
      "doubleSided": true,
      "extensions": {
        "KHR_materials_pbrSpecularGlossiness": {
          "diffuseFactor": [
            0.09760766351008722,
            0.09760766351008722,
            0.09760766351008722,
            1.0
          ],
          "glossinessFactor": 0.12633384146341464,
          "specularFactor": [
            0.0,
            0.0,
            0.0
          ]
        }
      },
      "name": "BakedCycles",
      "normalTexture": {
        "index": 2
      }
    },
    {
      "doubleSided": true,
      "emissiveFactor": [
        0.7488567073170733,
        0.7488567073170733,
        0.7488567073170733
      ],
      "emissiveTexture": {
        "index": 3
      },
      "extensions": {
        "KHR_materials_pbrSpecularGlossiness": {
          "diffuseFactor": [
            1.0,
            1.0,
            1.0,
            1.0
          ],
          "diffuseTexture": {
            "index": 3
          },
          "glossinessFactor": 1.0,
          "specularFactor": [
            0.0,
            0.0,
            0.0
          ]
        }
      },
      "name": "blue"
    }
  ],
  "meshes": [
    {
      "name": "psvr_Circle.001_0",
      "primitives": [
        {
          "attributes": {
            "NORMAL": 1,
            "POSITION": 0,
            "TEXCOORD_0": 2
          },
          "indices": 3,
          "material": 3,
          "mode": 4
        }
      ]
    },
    {
      "name": "psvr_Circle.001_1",
      "primitives": [
        {
          "attributes": {
            "NORMAL": 5,
            "POSITION": 4,
            "TEXCOORD_0": 6
          },
          "indices": 7,
          "material": 4,
          "mode": 4
        }
      ]
    },
    {
      "name": "psvr_Circle.001_2",
      "primitives": [
        {
          "attributes": {
            "NORMAL": 9,
            "POSITION": 8,
            "TEXCOORD_0": 10
          },
          "indices": 11,
          "material": 5,
          "mode": 4
        }
      ]
    },
    {
      "name": "psvr_Circle.001_3",
      "primitives": [
        {
          "attributes": {
            "NORMAL": 13,
            "POSITION": 12,
            "TEXCOORD_0": 14
          },
          "indices": 15,
          "material": 6,
          "mode": 4
        }
      ]
    },
    {
      "name": "psvr_Circle.001_4",
      "primitives": [
        {
          "attributes": {
            "NORMAL": 17,
            "POSITION": 16,
            "TANGENT": 18,
            "TEXCOORD_0": 19
          },
          "indices": 20,
          "material": 7,
          "mode": 4
        }
      ]
    },
    {
      "name": "psvr_Circle.001_5",
      "primitives": [
        {
          "attributes": {
            "NORMAL": 22,
            "POSITION": 21,
            "TEXCOORD_0": 23
          },
          "indices": 24,
          "material": 8,
          "mode": 4
        }
      ]
    },
    {
      "name": "move_Circle.000_0",
      "primitives": [
        {
          "attributes": {
            "NORMAL": 26,
            "POSITION": 25,
            "TEXCOORD_0": 27
          },
          "indices": 28,
          "material": 0,
          "mode": 4
        }
      ]
    },
    {
      "name": "move_Circle.000_1",
      "primitives": [
        {
          "attributes": {
            "NORMAL": 30,
            "POSITION": 29,
            "TEXCOORD_0": 31
          },
          "indices": 32,
          "material": 1,
          "mode": 4
        }
      ]
    },
    {
      "name": "move_Circle.000_2",
      "primitives": [
        {
          "attributes": {
            "NORMAL": 34,
            "POSITION": 33,
            "TEXCOORD_0": 35
          },
          "indices": 36,
          "material": 2,
          "mode": 4
        }
      ]
    }
  ],
  "nodes": [
    {
      "children": [
        1
      ],
      "matrix": [
        1.0,
        0.0,
        0.0,
        0.0,
        0.0,
        2.220446049250313e-16,
        -1.0,
        0.0,
        0.0,
        1.0,
        2.220446049250313e-16,
        0.0,
        0.0,
        0.0,
        0.0,
        1.0
      ],
      "name": "Sketchfab_model"
    },
    {
      "children": [
        2,
        9
      ],
      "name": "Root"
    },
    {
      "children": [
        3,
        4,
        5,
        6,
        7,
        8
      ],
      "matrix": [
        1.0,
        0.0,
        0.0,
        0.0,
        0.0,
        -0.0,
        1.0,
        0.0,
        0.0,
        -1.0,
        -0.0,
        0.0,
        -3.7438700000000003,
        0.0,
        0.0,
        1.0
      ],
      "name": "psvr_Circle.001"
    },
    {
      "mesh": 0,
      "name": "psvr_Circle.001_0"
    },
    {
      "mesh": 1,
      "name": "psvr_Circle.001_1"
    },
    {
      "mesh": 2,
      "name": "psvr_Circle.001_2"
    },
    {
      "mesh": 3,
      "name": "psvr_Circle.001_3"
    },
    {
      "mesh": 4,
      "name": "psvr_Circle.001_4"
    },
    {
      "mesh": 5,
      "name": "psvr_Circle.001_5"
    },
    {
      "children": [
        10,
        11,
        12
      ],
      "matrix": [
        0.6266200000000002,
        0.0,
        0.0,
        0.0,
        0.0,
        -0.0,
        0.6266200000000002,
        0.0,
        0.0,
        -0.6266200000000002,
        -0.0,
        0.0,
        1.50195,
        -0.0,
        0.8679700000000001,
        1.0
      ],
      "name": "move_Circle.000"
    },
    {
      "mesh": 6,
      "name": "move_Circle.000_0"
    },
    {
      "mesh": 7,
      "name": "move_Circle.000_1"
    },
    {
      "mesh": 8,
      "name": "move_Circle.000_2"
    }
  ],
  "samplers": [
    {
      "magFilter": 9729,
      "minFilter": 9987,
      "wrapS": 10497,
      "wrapT": 10497
    }
  ],
  "scene": 0,
  "scenes": [
    {
      "name": "Sketchfab_Scene",
      "nodes": [
        0
      ]
    }
  ],
  "textures": [
    {
      "sampler": 0,
      "source": 0
    },
    {
      "sampler": 0,
      "source": 1
    },
    {
      "sampler": 0,
      "source": 2
    },
    {
      "sampler": 0,
      "source": 3
    }
  ]
}
