{
    "asset" : {
        "generator" : "Khronos glTF Blender I/O v1.6.16",
        "version" : "2.0"
    },
    "scene" : 0,
    "scenes" : [
        {
            "name" : "Scene",
            "nodes" : [
                0,
                1,
                2,
                3,
                4
            ]
        }
    ],
    "nodes" : [
        {
            "name" : "Studio_Camera",
            "rotation" : [
                0.5475655198097229,
                -0.24388310313224792,
                0.17076878249645233,
                0.7820046544075012
            ],
            "scale" : [
                7.068190097808838,
                7.068193435668945,
                7.068193435668945
            ],
            "translation" : [
                -0.3143986165523529,
                0.4238874316215515,
                0.4679829776287079
            ]
        },
        {
            "name" : "Studio_Light",
            "translation" : [
                -1.1856690645217896,
                1.5400397777557373,
                0.9516424536705017
            ]
        },
        {
            "mesh" : 0,
            "name" : "Studio_Fond"
        },
        {
            "mesh" : 1,
            "name" : "Console_PS5",
            "translation" : [
                0,
                0.016999999061226845,
                0
            ]
        },
        {
            "mesh" : 2,
            "name" : "Console_PS5_Soccle",
            "translation" : [
                0,
                0.0009999999310821295,
                0
            ]
        }
    ],
    "materials" : [
        {
            "doubleSided" : true,
            "name" : "Studio",
            "pbrMetallicRoughness" : {
                "baseColorFactor" : [
                    0.17335589230060577,
                    0.17335566878318787,
                    0.17335566878318787,
                    1
                ],
                "metallicFactor" : 0,
                "roughnessFactor" : 0.5
            }
        },
        {
            "doubleSided" : true,
            "name" : "Console_PS5_Coque_Interieur",
            "pbrMetallicRoughness" : {
                "baseColorFactor" : [
                    0,
                    0,
                    0,
                    1
                ],
                "metallicFactor" : 0.800000011920929,
                "roughnessFactor" : 0.05000000074505806
            }
        },
        {
            "doubleSided" : true,
            "name" : "Consle_PS5_Coque_Exterieur",
            "pbrMetallicRoughness" : {
                "metallicFactor" : 0,
                "roughnessFactor" : 0.6000000238418579
            }
        },
        {
            "doubleSided" : true,
            "name" : "Console_PS5_Coque_Aillette",
            "pbrMetallicRoughness" : {
                "baseColorFactor" : [
                    0,
                    0,
                    0,
                    1
                ],
                "metallicFactor" : 0,
                "roughnessFactor" : 0.4000000059604645
            }
        },
        {
            "doubleSided" : true,
            "name" : "Console_PS5_Metal",
            "pbrMetallicRoughness" : {
                "baseColorFactor" : [
                    0.800000011920929,
                    0.800000011920929,
                    0.800000011920929,
                    1
                ],
                "roughnessFactor" : 0.20000000298023224
            }
        },
        {
            "doubleSided" : true,
            "emissiveFactor" : [
                1,
                1,
                0
            ],
            "name" : "Console_PS5_LED",
            "pbrMetallicRoughness" : {}
        },
        {
            "doubleSided" : true,
            "name" : "Console_PS5_Fond",
            "pbrMetallicRoughness" : {
                "baseColorFactor" : [
                    0.0020984052680432796,
                    0.0020984052680432796,
                    0.0020984052680432796,
                    1
                ],
                "metallicFactor" : 0,
                "roughnessFactor" : 0.5
            }
        },
        {
            "doubleSided" : true,
            "name" : "Console_PS5_USB",
            "pbrMetallicRoughness" : {
                "baseColorFactor" : [
                    0.009830388240516186,
                    0.021746531128883362,
                    0.8000000715255737,
                    1
                ],
                "metallicFactor" : 0,
                "roughnessFactor" : 0.5
            }
        },
        {
            "doubleSided" : true,
            "name" : "Console_PS5_Socle",
            "pbrMetallicRoughness" : {
                "metallicFactor" : 0
            }
        }
    ],
    "meshes" : [
        {
            "name" : "Studio_Fond",
            "primitives" : [
                {
                    "attributes" : {
                        "POSITION" : 0,
                        "NORMAL" : 1,
                        "TEXCOORD_0" : 2,
                        "TEXCOORD_1" : 3
                    },
                    "indices" : 4,
                    "material" : 0
                }
            ]
        },
        {
            "name" : "Console_PS5",
            "primitives" : [
                {
                    "attributes" : {
                        "POSITION" : 5,
                        "NORMAL" : 6,
                        "TEXCOORD_0" : 7,
                        "TEXCOORD_1" : 8
                    },
                    "indices" : 9,
                    "material" : 1
                },
                {
                    "attributes" : {
                        "POSITION" : 10,
                        "NORMAL" : 11,
                        "TEXCOORD_0" : 12,
                        "TEXCOORD_1" : 13
                    },
                    "indices" : 14,
                    "material" : 2
                },
                {
                    "attributes" : {
                        "POSITION" : 15,
                        "NORMAL" : 16,
                        "TEXCOORD_0" : 17,
                        "TEXCOORD_1" : 18
                    },
                    "indices" : 19,
                    "material" : 3
                },
                {
                    "attributes" : {
                        "POSITION" : 20,
                        "NORMAL" : 21,
                        "TEXCOORD_0" : 22,
                        "TEXCOORD_1" : 23
                    },
                    "indices" : 24,
                    "material" : 4
                },
                {
                    "attributes" : {
                        "POSITION" : 25,
                        "NORMAL" : 26,
                        "TEXCOORD_0" : 27,
                        "TEXCOORD_1" : 28
                    },
                    "indices" : 29,
                    "material" : 5
                },
                {
                    "attributes" : {
                        "POSITION" : 30,
                        "NORMAL" : 31,
                        "TEXCOORD_0" : 32,
                        "TEXCOORD_1" : 33
                    },
                    "indices" : 34,
                    "material" : 6
                },
                {
                    "attributes" : {
                        "POSITION" : 35,
                        "NORMAL" : 36,
                        "TEXCOORD_0" : 37,
                        "TEXCOORD_1" : 38
                    },
                    "indices" : 39,
                    "material" : 7
                }
            ]
        },
        {
            "name" : "Console_PS5_Soccle",
            "primitives" : [
                {
                    "attributes" : {
                        "POSITION" : 40,
                        "NORMAL" : 41,
                        "TEXCOORD_0" : 42,
                        "TEXCOORD_1" : 43
                    },
                    "indices" : 44,
                    "material" : 8
                }
            ]
        }
    ],
    "accessors" : [
        {
            "bufferView" : 0,
            "componentType" : 5126,
            "count" : 8,
            "max" : [
                5.167434215545654,
                3.1804192066192627,
                6.020627975463867
            ],
            "min" : [
                -5.167434215545654,
                0,
                -1.73625910282135
            ],
            "type" : "VEC3"
        },
        {
            "bufferView" : 1,
            "componentType" : 5126,
            "count" : 8,
            "type" : "VEC3"
        },
        {
            "bufferView" : 2,
            "componentType" : 5126,
            "count" : 8,
            "type" : "VEC2"
        },
        {
            "bufferView" : 3,
            "componentType" : 5126,
            "count" : 8,
            "type" : "VEC2"
        },
        {
            "bufferView" : 4,
            "componentType" : 5123,
            "count" : 30,
            "type" : "SCALAR"
        },
        {
            "bufferView" : 5,
            "componentType" : 5126,
            "count" : 12500,
            "max" : [
                0.04189470410346985,
                0.3822230100631714,
                0.12369398772716522
            ],
            "min" : [
                -0.04721127450466156,
                0.002866089344024658,
                -0.13302390277385712
            ],
            "type" : "VEC3"
        },
        {
            "bufferView" : 6,
            "componentType" : 5126,
            "count" : 12500,
            "type" : "VEC3"
        },
        {
            "bufferView" : 7,
            "componentType" : 5126,
            "count" : 12500,
            "type" : "VEC2"
        },
        {
            "bufferView" : 8,
            "componentType" : 5126,
            "count" : 12500,
            "type" : "VEC2"
        },
        {
            "bufferView" : 9,
            "componentType" : 5123,
            "count" : 71052,
            "type" : "SCALAR"
        },
        {
            "bufferView" : 10,
            "componentType" : 5126,
            "count" : 13033,
            "max" : [
                0.05625167489051819,
                0.39104002714157104,
                0.12707281112670898
            ],
            "min" : [
                -0.04984961450099945,
                0.0005817413330078125,
                -0.13318954408168793
            ],
            "type" : "VEC3"
        },
        {
            "bufferView" : 11,
            "componentType" : 5126,
            "count" : 13033,
            "type" : "VEC3"
        },
        {
            "bufferView" : 12,
            "componentType" : 5126,
            "count" : 13033,
            "type" : "VEC2"
        },
        {
            "bufferView" : 13,
            "componentType" : 5126,
            "count" : 13033,
            "type" : "VEC2"
        },
        {
            "bufferView" : 14,
            "componentType" : 5123,
            "count" : 70155,
            "type" : "SCALAR"
        },
        {
            "bufferView" : 15,
            "componentType" : 5126,
            "count" : 16338,
            "max" : [
                0.03963111340999603,
                0.37910306453704834,
                0.1225554570555687
            ],
            "min" : [
                -0.04534728825092316,
                0.014073163270950317,
                -0.13085074722766876
            ],
            "type" : "VEC3"
        },
        {
            "bufferView" : 16,
            "componentType" : 5126,
            "count" : 16338,
            "type" : "VEC3"
        },
        {
            "bufferView" : 17,
            "componentType" : 5126,
            "count" : 16338,
            "type" : "VEC2"
        },
        {
            "bufferView" : 18,
            "componentType" : 5126,
            "count" : 16338,
            "type" : "VEC2"
        },
        {
            "bufferView" : 19,
            "componentType" : 5123,
            "count" : 79548,
            "type" : "SCALAR"
        },
        {
            "bufferView" : 20,
            "componentType" : 5126,
            "count" : 1668,
            "max" : [
                0.01269153505563736,
                0.1945628523826599,
                0.12349487841129303
            ],
            "min" : [
                -0.005788952112197876,
                0.021378174424171448,
                -0.133006289601326
            ],
            "type" : "VEC3"
        },
        {
            "bufferView" : 21,
            "componentType" : 5126,
            "count" : 1668,
            "type" : "VEC3"
        },
        {
            "bufferView" : 22,
            "componentType" : 5126,
            "count" : 1668,
            "type" : "VEC2"
        },
        {
            "bufferView" : 23,
            "componentType" : 5126,
            "count" : 1668,
            "type" : "VEC2"
        },
        {
            "bufferView" : 24,
            "componentType" : 5123,
            "count" : 7314,
            "type" : "SCALAR"
        },
        {
            "bufferView" : 25,
            "componentType" : 5126,
            "count" : 132,
            "max" : [
                0.02550928294658661,
                0.3798789978027344,
                0.12127300351858139
            ],
            "min" : [
                -0.030952244997024536,
                0.3012904226779938,
                0.06309303641319275
            ],
            "type" : "VEC3"
        },
        {
            "bufferView" : 26,
            "componentType" : 5126,
            "count" : 132,
            "type" : "VEC3"
        },
        {
            "bufferView" : 27,
            "componentType" : 5126,
            "count" : 132,
            "type" : "VEC2"
        },
        {
            "bufferView" : 28,
            "componentType" : 5126,
            "count" : 132,
            "type" : "VEC2"
        },
        {
            "bufferView" : 29,
            "componentType" : 5123,
            "count" : 504,
            "type" : "SCALAR"
        },
        {
            "bufferView" : 30,
            "componentType" : 5126,
            "count" : 1939,
            "max" : [
                0.03274494409561157,
                0.3747541308403015,
                0.12327681481838226
            ],
            "min" : [
                -0.03296421468257904,
                0.01691669225692749,
                -0.13296426832675934
            ],
            "type" : "VEC3"
        },
        {
            "bufferView" : 31,
            "componentType" : 5126,
            "count" : 1939,
            "type" : "VEC3"
        },
        {
            "bufferView" : 32,
            "componentType" : 5126,
            "count" : 1939,
            "type" : "VEC2"
        },
        {
            "bufferView" : 33,
            "componentType" : 5126,
            "count" : 1939,
            "type" : "VEC2"
        },
        {
            "bufferView" : 34,
            "componentType" : 5123,
            "count" : 9027,
            "type" : "SCALAR"
        },
        {
            "bufferView" : 35,
            "componentType" : 5126,
            "count" : 136,
            "max" : [
                0.006675243377685547,
                0.16104620695114136,
                -0.12522022426128387
            ],
            "min" : [
                0.005265101790428162,
                0.12634044885635376,
                -0.13186199963092804
            ],
            "type" : "VEC3"
        },
        {
            "bufferView" : 36,
            "componentType" : 5126,
            "count" : 136,
            "type" : "VEC3"
        },
        {
            "bufferView" : 37,
            "componentType" : 5126,
            "count" : 136,
            "type" : "VEC2"
        },
        {
            "bufferView" : 38,
            "componentType" : 5126,
            "count" : 136,
            "type" : "VEC2"
        },
        {
            "bufferView" : 39,
            "componentType" : 5123,
            "count" : 660,
            "type" : "SCALAR"
        },
        {
            "bufferView" : 40,
            "componentType" : 5126,
            "count" : 1258,
            "max" : [
                0.08344411104917526,
                0.03348955512046814,
                0.08174439519643784
            ],
            "min" : [
                -0.08224092423915863,
                0,
                -0.08390392363071442
            ],
            "type" : "VEC3"
        },
        {
            "bufferView" : 41,
            "componentType" : 5126,
            "count" : 1258,
            "type" : "VEC3"
        },
        {
            "bufferView" : 42,
            "componentType" : 5126,
            "count" : 1258,
            "type" : "VEC2"
        },
        {
            "bufferView" : 43,
            "componentType" : 5126,
            "count" : 1258,
            "type" : "VEC2"
        },
        {
            "bufferView" : 44,
            "componentType" : 5123,
            "count" : 6810,
            "type" : "SCALAR"
        }
    ],
    "bufferViews" : [
        {
            "buffer" : 0,
            "byteLength" : 96,
            "byteOffset" : 0
        },
        {
            "buffer" : 0,
            "byteLength" : 96,
            "byteOffset" : 96
        },
        {
            "buffer" : 0,
            "byteLength" : 64,
            "byteOffset" : 192
        },
        {
            "buffer" : 0,
            "byteLength" : 64,
            "byteOffset" : 256
        },
        {
            "buffer" : 0,
            "byteLength" : 60,
            "byteOffset" : 320
        },
        {
            "buffer" : 0,
            "byteLength" : 150000,
            "byteOffset" : 380
        },
        {
            "buffer" : 0,
            "byteLength" : 150000,
            "byteOffset" : 150380
        },
        {
            "buffer" : 0,
            "byteLength" : 100000,
            "byteOffset" : 300380
        },
        {
            "buffer" : 0,
            "byteLength" : 100000,
            "byteOffset" : 400380
        },
        {
            "buffer" : 0,
            "byteLength" : 142104,
            "byteOffset" : 500380
        },
        {
            "buffer" : 0,
            "byteLength" : 156396,
            "byteOffset" : 642484
        },
        {
            "buffer" : 0,
            "byteLength" : 156396,
            "byteOffset" : 798880
        },
        {
            "buffer" : 0,
            "byteLength" : 104264,
            "byteOffset" : 955276
        },
        {
            "buffer" : 0,
            "byteLength" : 104264,
            "byteOffset" : 1059540
        },
        {
            "buffer" : 0,
            "byteLength" : 140310,
            "byteOffset" : 1163804
        },
        {
            "buffer" : 0,
            "byteLength" : 196056,
            "byteOffset" : 1304116
        },
        {
            "buffer" : 0,
            "byteLength" : 196056,
            "byteOffset" : 1500172
        },
        {
            "buffer" : 0,
            "byteLength" : 130704,
            "byteOffset" : 1696228
        },
        {
            "buffer" : 0,
            "byteLength" : 130704,
            "byteOffset" : 1826932
        },
        {
            "buffer" : 0,
            "byteLength" : 159096,
            "byteOffset" : 1957636
        },
        {
            "buffer" : 0,
            "byteLength" : 20016,
            "byteOffset" : 2116732
        },
        {
            "buffer" : 0,
            "byteLength" : 20016,
            "byteOffset" : 2136748
        },
        {
            "buffer" : 0,
            "byteLength" : 13344,
            "byteOffset" : 2156764
        },
        {
            "buffer" : 0,
            "byteLength" : 13344,
            "byteOffset" : 2170108
        },
        {
            "buffer" : 0,
            "byteLength" : 14628,
            "byteOffset" : 2183452
        },
        {
            "buffer" : 0,
            "byteLength" : 1584,
            "byteOffset" : 2198080
        },
        {
            "buffer" : 0,
            "byteLength" : 1584,
            "byteOffset" : 2199664
        },
        {
            "buffer" : 0,
            "byteLength" : 1056,
            "byteOffset" : 2201248
        },
        {
            "buffer" : 0,
            "byteLength" : 1056,
            "byteOffset" : 2202304
        },
        {
            "buffer" : 0,
            "byteLength" : 1008,
            "byteOffset" : 2203360
        },
        {
            "buffer" : 0,
            "byteLength" : 23268,
            "byteOffset" : 2204368
        },
        {
            "buffer" : 0,
            "byteLength" : 23268,
            "byteOffset" : 2227636
        },
        {
            "buffer" : 0,
            "byteLength" : 15512,
            "byteOffset" : 2250904
        },
        {
            "buffer" : 0,
            "byteLength" : 15512,
            "byteOffset" : 2266416
        },
        {
            "buffer" : 0,
            "byteLength" : 18054,
            "byteOffset" : 2281928
        },
        {
            "buffer" : 0,
            "byteLength" : 1632,
            "byteOffset" : 2299984
        },
        {
            "buffer" : 0,
            "byteLength" : 1632,
            "byteOffset" : 2301616
        },
        {
            "buffer" : 0,
            "byteLength" : 1088,
            "byteOffset" : 2303248
        },
        {
            "buffer" : 0,
            "byteLength" : 1088,
            "byteOffset" : 2304336
        },
        {
            "buffer" : 0,
            "byteLength" : 1320,
            "byteOffset" : 2305424
        },
        {
            "buffer" : 0,
            "byteLength" : 15096,
            "byteOffset" : 2306744
        },
        {
            "buffer" : 0,
            "byteLength" : 15096,
            "byteOffset" : 2321840
        },
        {
            "buffer" : 0,
            "byteLength" : 10064,
            "byteOffset" : 2336936
        },
        {
            "buffer" : 0,
            "byteLength" : 10064,
            "byteOffset" : 2347000
        },
        {
            "buffer" : 0,
            "byteLength" : 13620,
            "byteOffset" : 2357064
        }
    ],
    "buffers" : [
        {
            "byteLength" : 2370684,
            "uri" : "data:application/octet-stream;base64,"
        }
    ]
}
