{
    "asset" : {
        "generator" : "Khronos glTF Blender I/O v1.6.16",
        "version" : "2.0"
    },
    "scene" : 0,
    "scenes" : [
        {
            "name" : "Scene",
            "nodes" : [
                1,
                10
            ]
        }
    ],
    "nodes" : [
        {
            "name" : "PS5.obj.cleaner.materialmerger.gles"
        },
        {
            "children" : [
                0
            ],
            "name" : "Sketchfab_model",
            "rotation" : [
                -0.7068336009979248,
                0,
                0,
                0.707379937171936
            ],
            "scale" : [
                32.96208572387695,
                32.96208190917969,
                32.96208190917969
            ],
            "translation" : [
                0,
                -6.807403564453125,
                -2.5208253860473633
            ]
        },
        {
            "mesh" : 0,
            "name" : "Object_2"
        },
        {
            "mesh" : 1,
            "name" : "Object_3"
        },
        {
            "mesh" : 2,
            "name" : "Object_4"
        },
        {
            "mesh" : 3,
            "name" : "Object_5"
        },
        {
            "mesh" : 4,
            "name" : "Object_6"
        },
        {
            "mesh" : 5,
            "name" : "Object_7"
        },
        {
            "mesh" : 6,
            "name" : "Object_8"
        },
        {
            "children" : [
                2,
                3,
                4,
                5,
                6,
                7,
                8
            ],
            "name" : "PS5.obj.cleaner.materialmerger.gles.001"
        },
        {
            "children" : [
                9
            ],
            "name" : "Sketchfab_model.001",
            "rotation" : [
                -0.7068336009979248,
                0,
                0,
                0.707379937171936
            ],
            "scale" : [
                32.96208572387695,
                32.96208190917969,
                32.96208190917969
            ],
            "translation" : [
                0,
                -6.807403564453125,
                -2.5208253860473633
            ]
        }
    ],
    "materials" : [
        {
            "doubleSided" : true,
            "name" : "Glass_-_Heavy_Color",
            "pbrMetallicRoughness" : {
                "baseColorFactor" : [
                    0,
                    0,
                    0,
                    1
                ],
                "metallicFactor" : 0.800000011920929,
                "roughnessFactor" : 0.20000000298023224
            }
        },
        {
            "doubleSided" : true,
            "name" : "Plastic_-_Textured_-_Regular",
            "pbrMetallicRoughness" : {
                "baseColorFactor" : [
                    0.8069522380828857,
                    0.7991027235984802,
                    0.9215818643569946,
                    1
                ],
                "metallicFactor" : 0,
                "roughnessFactor" : 0.6000000238418579
            }
        },
        {
            "doubleSided" : true,
            "name" : "Plastic_-_Translucent_Glossy_Blue",
            "pbrMetallicRoughness" : {
                "baseColorFactor" : [
                    0,
                    0.03189603239297867,
                    0.44520118832588196,
                    1
                ],
                "metallicFactor" : 0,
                "roughnessFactor" : 0.8434915542602539
            }
        },
        {
            "doubleSided" : true,
            "name" : "Plastic_-_Translucent_Glossy_Gray",
            "pbrMetallicRoughness" : {
                "baseColorFactor" : [
                    0,
                    0,
                    0,
                    1
                ],
                "metallicFactor" : 0.800000011920929,
                "roughnessFactor" : 0.20000000298023224
            }
        },
        {
            "doubleSided" : true,
            "name" : "Plastic_-_Translucent_Matte_Gray",
            "pbrMetallicRoughness" : {
                "baseColorFactor" : [
                    0,
                    0,
                    0,
                    1
                ],
                "metallicFactor" : 0,
                "roughnessFactor" : 0.800000011920929
            }
        },
        {
            "doubleSided" : true,
            "name" : "Plastic_-_Translucent_Matte_Gray_1",
            "pbrMetallicRoughness" : {
                "baseColorFactor" : [
                    0,
                    0,
                    0,
                    1
                ],
                "metallicFactor" : 0,
                "roughnessFactor" : 0.800000011920929
            }
        },
        {
            "doubleSided" : true,
            "name" : "Steel_-_Satin",
            "pbrMetallicRoughness" : {
                "baseColorFactor" : [
                    0.18447498977184296,
                    0.18447498977184296,
                    0.18447498977184296,
                    1
                ],
                "metallicFactor" : 0.800000011920929,
                "roughnessFactor" : 0.6000000238418579
            }
        }
    ],
    "meshes" : [
        {
            "name" : "Object_0.001",
            "primitives" : [
                {
                    "attributes" : {
                        "POSITION" : 0,
                        "NORMAL" : 1,
                        "TEXCOORD_0" : 2
                    },
                    "indices" : 3,
                    "material" : 0
                }
            ]
        },
        {
            "name" : "Object_1",
            "primitives" : [
                {
                    "attributes" : {
                        "POSITION" : 4,
                        "NORMAL" : 5,
                        "TEXCOORD_0" : 6
                    },
                    "indices" : 7,
                    "material" : 1
                }
            ]
        },
        {
            "name" : "Object_2",
            "primitives" : [
                {
                    "attributes" : {
                        "POSITION" : 8,
                        "NORMAL" : 9,
                        "TEXCOORD_0" : 10
                    },
                    "indices" : 11,
                    "material" : 2
                }
            ]
        },
        {
            "name" : "Object_3",
            "primitives" : [
                {
                    "attributes" : {
                        "POSITION" : 12,
                        "NORMAL" : 13,
                        "TEXCOORD_0" : 14
                    },
                    "indices" : 15,
                    "material" : 3
                }
            ]
        },
        {
            "name" : "Object_4",
            "primitives" : [
                {
                    "attributes" : {
                        "POSITION" : 16,
                        "NORMAL" : 17,
                        "TEXCOORD_0" : 18
                    },
                    "indices" : 19,
                    "material" : 4
                }
            ]
        },
        {
            "name" : "Object_5",
            "primitives" : [
                {
                    "attributes" : {
                        "POSITION" : 20,
                        "NORMAL" : 21,
                        "TEXCOORD_0" : 22
                    },
                    "indices" : 23,
                    "material" : 5
                }
            ]
        },
        {
            "name" : "Object_6",
            "primitives" : [
                {
                    "attributes" : {
                        "POSITION" : 24,
                        "NORMAL" : 25,
                        "TEXCOORD_0" : 26
                    },
                    "indices" : 27,
                    "material" : 6
                }
            ]
        }
    ],
    "accessors" : [
        {
            "bufferView" : 0,
            "componentType" : 5126,
            "count" : 1175,
            "max" : [
                0.007867000065743923,
                -0.599498987197876,
                0.38518598675727844
            ],
            "min" : [
                -0.007871000096201897,
                -0.6037790179252625,
                0.13840100169181824
            ],
            "type" : "VEC3"
        },
        {
            "bufferView" : 1,
            "componentType" : 5126,
            "count" : 1175,
            "type" : "VEC3"
        },
        {
            "bufferView" : 2,
            "componentType" : 5126,
            "count" : 1175,
            "type" : "VEC2"
        },
        {
            "bufferView" : 3,
            "componentType" : 5123,
            "count" : 1980,
            "type" : "SCALAR"
        },
        {
            "bufferView" : 4,
            "componentType" : 5126,
            "count" : 5050,
            "max" : [
                0.3440819978713989,
                0.6499980092048645,
                1.9499980211257935
            ],
            "min" : [
                -0.22066299617290497,
                -0.6499990224838257,
                0
            ],
            "type" : "VEC3"
        },
        {
            "bufferView" : 5,
            "componentType" : 5126,
            "count" : 5050,
            "type" : "VEC3"
        },
        {
            "bufferView" : 6,
            "componentType" : 5126,
            "count" : 5050,
            "type" : "VEC2"
        },
        {
            "bufferView" : 7,
            "componentType" : 5123,
            "count" : 14622,
            "type" : "SCALAR"
        },
        {
            "bufferView" : 8,
            "componentType" : 5126,
            "count" : 194,
            "max" : [
                0.13367299735546112,
                0,
                1.9399980306625366
            ],
            "min" : [
                -0.13367600739002228,
                -0.5950890183448792,
                0.9763060212135315
            ],
            "type" : "VEC3"
        },
        {
            "bufferView" : 9,
            "componentType" : 5126,
            "count" : 194,
            "type" : "VEC3"
        },
        {
            "bufferView" : 10,
            "componentType" : 5126,
            "count" : 194,
            "type" : "VEC2"
        },
        {
            "bufferView" : 11,
            "componentType" : 5123,
            "count" : 468,
            "type" : "SCALAR"
        },
        {
            "bufferView" : 12,
            "componentType" : 5126,
            "count" : 4180,
            "max" : [
                0.2056400030851364,
                0.6055999994277954,
                1.9499980211257935
            ],
            "min" : [
                -0.2056400030851364,
                -0.609063982963562,
                0
            ],
            "type" : "VEC3"
        },
        {
            "bufferView" : 13,
            "componentType" : 5126,
            "count" : 4180,
            "type" : "VEC3"
        },
        {
            "bufferView" : 14,
            "componentType" : 5126,
            "count" : 4180,
            "type" : "VEC2"
        },
        {
            "bufferView" : 15,
            "componentType" : 5123,
            "count" : 10656,
            "type" : "SCALAR"
        },
        {
            "bufferView" : 16,
            "componentType" : 5126,
            "count" : 1970,
            "max" : [
                0.43779200315475464,
                0.3721829950809479,
                0.10045000165700912
            ],
            "min" : [
                -0.3044919967651367,
                -0.3721829950809479,
                -0.06840000301599503
            ],
            "type" : "VEC3"
        },
        {
            "bufferView" : 17,
            "componentType" : 5126,
            "count" : 1970,
            "type" : "VEC3"
        },
        {
            "bufferView" : 18,
            "componentType" : 5126,
            "count" : 1970,
            "type" : "VEC2"
        },
        {
            "bufferView" : 19,
            "componentType" : 5123,
            "count" : 3390,
            "type" : "SCALAR"
        },
        {
            "bufferView" : 20,
            "componentType" : 5126,
            "count" : 1626,
            "max" : [
                0.21632599830627441,
                0.5602350234985352,
                1.906548023223877
            ],
            "min" : [
                -0.20941099524497986,
                -0.561968982219696,
                0
            ],
            "type" : "VEC3"
        },
        {
            "bufferView" : 21,
            "componentType" : 5126,
            "count" : 1626,
            "type" : "VEC3"
        },
        {
            "bufferView" : 22,
            "componentType" : 5126,
            "count" : 1626,
            "type" : "VEC2"
        },
        {
            "bufferView" : 23,
            "componentType" : 5123,
            "count" : 4848,
            "type" : "SCALAR"
        },
        {
            "bufferView" : 24,
            "componentType" : 5126,
            "count" : 1102,
            "max" : [
                0.014271999709308147,
                -0.5245000123977661,
                0.9625909924507141
            ],
            "min" : [
                -0.014267999678850174,
                -0.599498987197876,
                0.8052250146865845
            ],
            "type" : "VEC3"
        },
        {
            "bufferView" : 25,
            "componentType" : 5126,
            "count" : 1102,
            "type" : "VEC3"
        },
        {
            "bufferView" : 26,
            "componentType" : 5126,
            "count" : 1102,
            "type" : "VEC2"
        },
        {
            "bufferView" : 27,
            "componentType" : 5123,
            "count" : 1752,
            "type" : "SCALAR"
        }
    ],
    "bufferViews" : [
        {
            "buffer" : 0,
            "byteLength" : 14100,
            "byteOffset" : 0
        },
        {
            "buffer" : 0,
            "byteLength" : 14100,
            "byteOffset" : 14100
        },
        {
            "buffer" : 0,
            "byteLength" : 9400,
            "byteOffset" : 28200
        },
        {
            "buffer" : 0,
            "byteLength" : 3960,
            "byteOffset" : 37600
        },
        {
            "buffer" : 0,
            "byteLength" : 60600,
            "byteOffset" : 41560
        },
        {
            "buffer" : 0,
            "byteLength" : 60600,
            "byteOffset" : 102160
        },
        {
            "buffer" : 0,
            "byteLength" : 40400,
            "byteOffset" : 162760
        },
        {
            "buffer" : 0,
            "byteLength" : 29244,
            "byteOffset" : 203160
        },
        {
            "buffer" : 0,
            "byteLength" : 2328,
            "byteOffset" : 232404
        },
        {
            "buffer" : 0,
            "byteLength" : 2328,
            "byteOffset" : 234732
        },
        {
            "buffer" : 0,
            "byteLength" : 1552,
            "byteOffset" : 237060
        },
        {
            "buffer" : 0,
            "byteLength" : 936,
            "byteOffset" : 238612
        },
        {
            "buffer" : 0,
            "byteLength" : 50160,
            "byteOffset" : 239548
        },
        {
            "buffer" : 0,
            "byteLength" : 50160,
            "byteOffset" : 289708
        },
        {
            "buffer" : 0,
            "byteLength" : 33440,
            "byteOffset" : 339868
        },
        {
            "buffer" : 0,
            "byteLength" : 21312,
            "byteOffset" : 373308
        },
        {
            "buffer" : 0,
            "byteLength" : 23640,
            "byteOffset" : 394620
        },
        {
            "buffer" : 0,
            "byteLength" : 23640,
            "byteOffset" : 418260
        },
        {
            "buffer" : 0,
            "byteLength" : 15760,
            "byteOffset" : 441900
        },
        {
            "buffer" : 0,
            "byteLength" : 6780,
            "byteOffset" : 457660
        },
        {
            "buffer" : 0,
            "byteLength" : 19512,
            "byteOffset" : 464440
        },
        {
            "buffer" : 0,
            "byteLength" : 19512,
            "byteOffset" : 483952
        },
        {
            "buffer" : 0,
            "byteLength" : 13008,
            "byteOffset" : 503464
        },
        {
            "buffer" : 0,
            "byteLength" : 9696,
            "byteOffset" : 516472
        },
        {
            "buffer" : 0,
            "byteLength" : 13224,
            "byteOffset" : 526168
        },
        {
            "buffer" : 0,
            "byteLength" : 13224,
            "byteOffset" : 539392
        },
        {
            "buffer" : 0,
            "byteLength" : 8816,
            "byteOffset" : 552616
        },
        {
            "buffer" : 0,
            "byteLength" : 3504,
            "byteOffset" : 561432
        }
    ],
    "buffers" : [
        {
            "byteLength" : 564936,
            "uri" : "data:application/octet-stream;base64,"
        }
    ]
}
